<?xml version="1.0" encoding="UTF-8"?>
<svg width="64px" height="10px" viewBox="0 0 64 10" version="1.1" xmlns="http://www.w3.org/2000/svg" xmlns:xlink="http://www.w3.org/1999/xlink">
    <!-- Generator: sketchtool 55.2 (78181) - https://sketchapp.com -->
    <title>43075B1D-E21B-4843-BFFA-962A46AE8BFD</title>
    <desc>Created with sketchtool.</desc>
    <defs>
        <polygon id="path-1" points="0 0.04125 19.9671128 0.04125 19.9671128 9.9961875 0 9.9961875"></polygon>
    </defs>
    <g id="MCB_CMS" stroke="none" stroke-width="1" fill="none" fill-rule="evenodd">
        <g id="prdoduct_upload" transform="translate(-13.000000, -30.000000)">
            <g id="Topmenu">
                <g id="Topmenu_Fold_Ud">
                    <g>
                        <g id="logo" transform="translate(13.000000, 30.000000)">
                            <path d="M23,4.19769513 L23,4.19947617 L23,5.79643793 L23,5.7981142 C23,8.11534835 24.8762818,9.99947617 27.1816605,10 L41.9678751,9.99895233 L41.9678751,9.99717129 L41.9678751,8.26254584 L41.9678751,8.2607648 L27.1816605,8.26128863 C25.8299115,8.26024096 24.7296337,7.15725511 24.7296337,5.79748559 L24.7296337,4.19989523 C24.7296337,2.84316396 25.8299115,1.73713986 27.1816605,1.73808277 L41.9994785,1.7376637 L42,0.00178103719 L42,0 L27.1820777,0.000942902043 C24.8762818,0.000523834468 23,1.88423258 23,4.19769513" id="Fill-1" fill="#FFFFFF"></path>
                            <g id="Group-5">
                                <mask id="mask-2" fill="white">
                                    <use xlink:href="#path-1"></use>
                                </mask>
                                <g id="Clip-4"></g>
                                <path d="M15.9802335,0.0417083333 L0.823589078,0.0411875 L0,0.0707708333 L0,0.0745208333 L0,9.96035417 L0,9.96410417 L1.64717816,9.96472917 L1.64767537,1.7724375 L9.09339001,1.7724375 L9.09388723,9.9961875 L10.7415626,9.99525 L10.7415626,9.99139583 L10.7415626,1.77202083 L15.9802335,1.7724375 C17.2709076,1.77358333 18.3198351,2.87275 18.3198351,4.22327083 L18.3198351,9.990875 L18.3198351,9.994625 L19.9671128,9.9961875 L19.9671128,9.99233333 L19.9671128,4.22379167 L19.9671128,4.2199375 C19.9676099,1.91722917 18.1801173,0.0423333333 15.9802335,0.0417083333" id="Fill-3" fill="#FFFFFF" mask="url(#mask-2)"></path>
                            </g>
                            <path d="M61.1054116,4.12458746 L46.7083649,4.12458746 L46.7083649,1.73614388 L59.710062,1.73656337 L61.0993981,1.74432384 C61.7524897,1.74537256 62.2831332,2.28053065 62.2836516,2.93345918 C62.2836516,3.59393844 61.7535265,4.12511143 61.1054116,4.12458746 M61.1065521,8.25263489 C61.0993981,8.25263489 59.7050853,8.26396099 59.7050853,8.26396099 L46.7092981,8.26448534 L46.7083649,7.02406796 L46.7087797,5.86261864 C48.2378788,5.86618426 61.1049969,5.87446909 61.1049969,5.87446909 C61.754045,5.87499345 62.2826147,6.40805411 62.2822012,7.06402391 C62.2831332,7.72009858 61.7535265,8.2536836 61.1065521,8.25263489 M64,2.93387866 C63.9984448,1.32169262 62.7018002,0.00922867181 61.1060337,0.00922867181 C61.1090405,0.00922867181 59.7157645,0.000524356353 59.7157645,0.000524356353 L45.0015552,0 L45,10 L59.7112025,10 C59.7142093,10 61.1116326,9.98877877 61.1116326,9.98877877 C62.7023187,9.98930313 64,8.67872686 63.9994816,7.06360443 C63.9989632,6.26060511 63.675476,5.52828903 63.1559265,5.00078653 C63.675476,4.47129149 63.9989632,3.74002412 64,2.93387866" id="Fill-6" fill="#FFFFFF"></path>
                        </g>
                    </g>
                </g>
            </g>
        </g>
    </g>
</svg>